<svg width="1008" height="843" viewBox="0 0 1008 843" fill="none" xmlns="http://www.w3.org/2000/svg">
<g clip-path="url(#clip0_803_456)">
<g opacity="0.6">
<path d="M778.095 345.182L742.313 283.158L778.095 221.136H849.659L885.442 283.158L849.659 345.182H778.095Z" fill="#021126" stroke="#091F48" stroke-width="7.992" stroke-miterlimit="10"/>
<path d="M654.051 273.617L618.268 211.594L654.051 149.572H725.616L761.397 211.594L725.616 273.617H654.051Z" fill="#021126" stroke="#091F48" stroke-width="7.992" stroke-miterlimit="10"/>
<path d="M654.051 130.489L618.268 68.4666L654.051 6.44336H725.616L761.397 68.4666L725.616 130.489H654.051Z" fill="#021126" stroke="#091F48" stroke-width="7.992" stroke-miterlimit="10"/>
<path d="M530.006 202.053L494.224 140.031L530.006 78.0077H601.57L637.352 140.031L601.57 202.053H530.006Z" fill="#021126" stroke="#091F48" stroke-width="7.992" stroke-miterlimit="10"/>
<path d="M405.962 273.617L370.179 211.594L405.962 149.572H477.525L513.308 211.594L477.525 273.617H405.962Z" fill="#021126" stroke="#091F48" stroke-width="7.992" stroke-miterlimit="10"/>
<path d="M157.872 273.617L122.09 211.594L157.872 149.572H229.436L265.219 211.594L229.436 273.617H157.872Z" fill="#021126" stroke="#091F48" stroke-width="7.992" stroke-miterlimit="10"/>
</g>
<path opacity="0.6" d="M654.051 416.184L618.268 354.162L654.051 292.139H725.615L761.397 354.162L725.615 416.184H654.051ZM530.006 630.877L494.224 568.854L530.006 506.832H601.57L637.352 568.854L601.57 630.877H530.006Z" stroke="#091F48" stroke-width="7.992" stroke-miterlimit="10"/>
<path d="M810.178 794.184C796.201 794.184 784.87 782.853 784.87 768.876V570.408H835.486V768.876C835.486 782.853 824.154 794.184 810.178 794.184Z" fill="white"/>
<path d="M839.482 549.096H780.874C778.047 549.096 775.337 550.219 773.339 552.217C771.34 554.215 770.218 556.926 770.218 559.752C770.218 562.578 771.34 565.289 773.339 567.287C775.337 569.285 778.047 570.408 780.874 570.408H839.482C842.308 570.408 845.018 569.285 847.017 567.287C849.015 565.289 850.138 562.578 850.138 559.752C850.138 556.926 849.015 554.215 847.017 552.217C845.018 550.219 842.308 549.096 839.482 549.096Z" fill="#D8D8D8"/>
<path d="M810.178 794.184C796.201 794.184 784.87 782.853 784.87 768.876V570.408H835.486V768.876C835.486 782.853 824.154 794.184 810.178 794.184ZM839.482 549.096H780.874C778.047 549.096 775.337 550.219 773.339 552.217C771.34 554.215 770.218 556.926 770.218 559.752C770.218 562.578 771.34 565.289 773.339 567.287C775.337 569.285 778.047 570.408 780.874 570.408H839.482C842.308 570.408 845.018 569.285 847.017 567.287C849.015 565.289 850.138 562.578 850.138 559.752C850.138 556.926 849.015 554.215 847.017 552.217C845.018 550.219 842.308 549.096 839.482 549.096Z" stroke="#133B4F" stroke-width="5.328" stroke-miterlimit="10" stroke-linecap="round" stroke-linejoin="round"/>
<path d="M796.858 696.948V768.876C796.858 776.221 802.833 782.196 810.178 782.196C817.522 782.196 823.498 776.221 823.498 768.876V696.948H796.858Z" fill="#EC1CE4"/>
<path d="M796.858 696.948V768.876C796.858 776.221 802.833 782.196 810.178 782.196C817.522 782.196 823.498 776.221 823.498 768.876V696.948H796.858Z" stroke="#133B4F" stroke-width="5.328" stroke-miterlimit="10" stroke-linecap="round" stroke-linejoin="round"/>
<path d="M784.972 501.304C787.753 501.304 790.008 499.049 790.008 496.268C790.008 493.486 787.753 491.231 784.972 491.231C782.191 491.231 779.936 493.486 779.936 496.268C779.936 499.049 782.191 501.304 784.972 501.304Z" fill="#EC1CE4"/>
<path d="M803.452 523.724C805.8 523.724 807.704 521.821 807.704 519.472C807.704 517.124 805.8 515.221 803.452 515.221C801.104 515.221 799.2 517.124 799.2 519.472C799.2 521.821 801.104 523.724 803.452 523.724Z" fill="#EC1CE4"/>
<path d="M825.493 463.251C830.804 463.251 835.109 458.946 835.109 453.636C835.109 448.325 830.804 444.02 825.493 444.02C820.182 444.02 815.877 448.325 815.877 453.636C815.877 458.946 820.182 463.251 825.493 463.251Z" fill="#EC1CE4"/>
<path d="M819.998 501.304C824.55 501.304 828.239 497.614 828.239 493.063C828.239 488.511 824.55 484.822 819.998 484.822C815.447 484.822 811.757 488.511 811.757 493.063C811.757 497.614 815.447 501.304 819.998 501.304Z" fill="#EC1CE4"/>
<path d="M784.972 501.304C787.753 501.304 790.008 499.049 790.008 496.268C790.008 493.486 787.753 491.231 784.972 491.231C782.191 491.231 779.936 493.486 779.936 496.268C779.936 499.049 782.191 501.304 784.972 501.304Z" stroke="#133B4F" stroke-width="5.328" stroke-miterlimit="10" stroke-linecap="round" stroke-linejoin="round"/>
<path d="M803.452 523.724C805.8 523.724 807.704 521.821 807.704 519.472C807.704 517.124 805.8 515.221 803.452 515.221C801.104 515.221 799.2 517.124 799.2 519.472C799.2 521.821 801.104 523.724 803.452 523.724Z" stroke="#133B4F" stroke-width="5.328" stroke-miterlimit="10" stroke-linecap="round" stroke-linejoin="round"/>
<path d="M800.899 477.903C802.416 477.903 803.645 476.674 803.645 475.157C803.645 473.64 802.416 472.41 800.899 472.41C799.382 472.41 798.152 473.64 798.152 475.157C798.152 476.674 799.382 477.903 800.899 477.903Z" stroke="#133B4F" stroke-width="5.328" stroke-miterlimit="10" stroke-linecap="round" stroke-linejoin="round"/>
<path d="M825.493 463.251C830.804 463.251 835.109 458.946 835.109 453.636C835.109 448.325 830.804 444.02 825.493 444.02C820.182 444.02 815.877 448.325 815.877 453.636C815.877 458.946 820.182 463.251 825.493 463.251Z" stroke="#133B4F" stroke-width="5.328" stroke-miterlimit="10" stroke-linecap="round" stroke-linejoin="round"/>
<path d="M819.998 501.304C824.55 501.304 828.239 497.614 828.239 493.063C828.239 488.511 824.55 484.822 819.998 484.822C815.447 484.822 811.757 488.511 811.757 493.063C811.757 497.614 815.447 501.304 819.998 501.304Z" stroke="#133B4F" stroke-width="5.328" stroke-miterlimit="10" stroke-linecap="round" stroke-linejoin="round"/>
<path d="M805.527 653.88C810.861 653.88 815.184 649.557 815.184 644.223C815.184 638.89 810.861 634.566 805.527 634.566C800.194 634.566 795.87 638.89 795.87 644.223C795.87 649.557 800.194 653.88 805.527 653.88Z" fill="#EC1CE4"/>
<path d="M805.527 653.88C810.861 653.88 815.184 649.557 815.184 644.223C815.184 638.89 810.861 634.566 805.527 634.566C800.194 634.566 795.87 638.89 795.87 644.223C795.87 649.557 800.194 653.88 805.527 653.88Z" stroke="#133B4F" stroke-width="5.328" stroke-miterlimit="10" stroke-linecap="round" stroke-linejoin="round"/>
<path d="M813.84 681.185C816.108 681.185 817.947 679.347 817.947 677.079C817.947 674.811 816.108 672.972 813.84 672.972C811.572 672.972 809.734 674.811 809.734 677.079C809.734 679.347 811.572 681.185 813.84 681.185Z" fill="#EC1CE4"/>
<path d="M813.84 681.185C816.108 681.185 817.947 679.347 817.947 677.079C817.947 674.811 816.108 672.972 813.84 672.972C811.572 672.972 809.734 674.811 809.734 677.079C809.734 679.347 811.572 681.185 813.84 681.185Z" stroke="#133B4F" stroke-width="5.328" stroke-miterlimit="10" stroke-linecap="round" stroke-linejoin="round"/>
<path d="M819.291 594.81C822.444 594.81 825 592.254 825 589.101C825 585.948 822.444 583.392 819.291 583.392C816.138 583.392 813.582 585.948 813.582 589.101C813.582 592.254 816.138 594.81 819.291 594.81Z" fill="#EC1CE4"/>
<path d="M819.291 594.81C822.444 594.81 825 592.254 825 589.101C825 585.948 822.444 583.392 819.291 583.392C816.138 583.392 813.582 585.948 813.582 589.101C813.582 592.254 816.138 594.81 819.291 594.81Z" stroke="#133B4F" stroke-width="5.328" stroke-miterlimit="10" stroke-linecap="round" stroke-linejoin="round"/>
<path d="M799.2 582.263C800.391 582.263 801.357 581.297 801.357 580.106C801.357 578.915 800.391 577.95 799.2 577.95C798.009 577.95 797.044 578.915 797.044 580.106C797.044 581.297 798.009 582.263 799.2 582.263Z" fill="#67CC70"/>
<path d="M799.2 582.263C800.391 582.263 801.357 581.297 801.357 580.106C801.357 578.915 800.391 577.95 799.2 577.95C798.009 577.95 797.044 578.915 797.044 580.106C797.044 581.297 798.009 582.263 799.2 582.263Z" stroke="#133B4F" stroke-width="5.328" stroke-miterlimit="10" stroke-linecap="round" stroke-linejoin="round"/>
<path d="M811.822 719.773C812.976 719.773 813.911 718.838 813.911 717.685C813.911 716.531 812.976 715.596 811.822 715.596C810.669 715.596 809.734 716.531 809.734 717.685C809.734 718.838 810.669 719.773 811.822 719.773Z" fill="#133B4F"/>
<path d="M800.354 743.568C802.285 743.568 803.851 742.003 803.851 740.071C803.851 738.14 802.285 736.575 800.354 736.575C798.423 736.575 796.858 738.14 796.858 740.071C796.858 742.003 798.423 743.568 800.354 743.568Z" fill="#133B4F"/>
<path d="M815.914 762.392C818.68 762.392 820.923 760.15 820.923 757.384C820.923 754.617 818.68 752.375 815.914 752.375C813.148 752.375 810.906 754.617 810.906 757.384C810.906 760.15 813.148 762.392 815.914 762.392Z" fill="#133B4F"/>
<path d="M808.492 712.281C808.91 712.281 809.249 711.942 809.249 711.524C809.249 711.106 808.91 710.767 808.492 710.767C808.075 710.767 807.736 711.106 807.736 711.524C807.736 711.942 808.075 712.281 808.492 712.281Z" fill="#133B4F"/>
<path d="M589.742 617.028C586.804 617.028 584.414 614.638 584.414 611.7V352.642C584.414 330.966 566.78 313.332 545.103 313.332C523.429 313.332 505.793 330.966 505.793 352.642V411.498C505.793 460.93 465.578 501.145 416.145 501.145C366.712 501.145 326.498 460.93 326.498 411.498V284.155C326.498 254.049 302.005 229.556 271.9 229.556C241.794 229.556 217.302 254.049 217.302 284.155V338.689C217.302 341.628 214.912 344.017 211.974 344.017C209.035 344.017 206.646 341.628 206.646 338.689V284.155C206.646 248.173 235.919 218.9 271.9 218.9C307.882 218.9 337.154 248.173 337.154 284.155V411.498C337.154 455.054 372.59 490.489 416.145 490.489C459.7 490.489 495.137 455.054 495.137 411.498V352.642C495.137 325.091 517.552 302.676 545.103 302.676C572.655 302.676 595.07 325.091 595.07 352.642V611.7C595.07 614.638 592.681 617.028 589.742 617.028Z" fill="white"/>
<path d="M589.742 617.028C586.804 617.028 584.414 614.638 584.414 611.7V352.642C584.414 330.966 566.78 313.332 545.103 313.332C523.429 313.332 505.793 330.966 505.793 352.642V411.498C505.793 460.93 465.578 501.145 416.145 501.145C366.712 501.145 326.498 460.93 326.498 411.498V284.155C326.498 254.049 302.005 229.556 271.9 229.556C241.794 229.556 217.302 254.049 217.302 284.155V338.689C217.302 341.628 214.912 344.017 211.974 344.017C209.035 344.017 206.646 341.628 206.646 338.689V284.155C206.646 248.173 235.919 218.9 271.9 218.9C307.882 218.9 337.154 248.173 337.154 284.155V411.498C337.154 455.054 372.59 490.489 416.145 490.489C459.7 490.489 495.137 455.054 495.137 411.498V352.642C495.137 325.091 517.552 302.676 545.103 302.676C572.655 302.676 595.07 325.091 595.07 352.642V611.7C595.07 614.638 592.681 617.028 589.742 617.028Z" stroke="#133B4F" stroke-width="5.328" stroke-miterlimit="10" stroke-linecap="round" stroke-linejoin="round"/>
<path d="M406.391 838.14H379.751V78.9001C379.751 71.5434 385.714 65.5801 393.071 65.5801C400.428 65.5801 406.391 71.5434 406.391 78.9001V838.14Z" fill="white"/>
<path d="M406.391 838.14H379.751V78.9001C379.751 71.5434 385.714 65.5801 393.071 65.5801C400.428 65.5801 406.391 71.5434 406.391 78.9001V838.14Z" stroke="#133B4F" stroke-width="5.328" stroke-miterlimit="10" stroke-linecap="round" stroke-linejoin="round"/>
<path d="M452.79 406.003H415.716V392.683H452.79C454.556 392.683 456.25 393.385 457.499 394.634C458.748 395.883 459.45 397.577 459.45 399.343C459.45 401.11 458.748 402.804 457.499 404.053C456.25 405.302 454.556 406.003 452.79 406.003Z" fill="#6F8699"/>
<path d="M452.79 406.003H415.716V392.683H452.79C454.556 392.683 456.25 393.385 457.499 394.634C458.748 395.883 459.45 397.577 459.45 399.343C459.45 401.11 458.748 402.804 457.499 404.053C456.25 405.302 454.556 406.003 452.79 406.003Z" stroke="#133B4F" stroke-width="5.328" stroke-miterlimit="10" stroke-linecap="round" stroke-linejoin="round"/>
<path d="M492.168 815.496H918.408V838.14H492.168V815.496Z" fill="#DABC95"/>
<path d="M492.168 815.496H918.408V838.14H492.168V815.496Z" stroke="#133B4F" stroke-width="5.328" stroke-miterlimit="10" stroke-linecap="round" stroke-linejoin="round"/>
<path d="M513.654 615.696H526.974V815.496H513.654V615.696Z" fill="#D6D9E2"/>
<path d="M513.654 615.696H526.974V815.496H513.654V615.696Z" stroke="#133B4F" stroke-width="5.328" stroke-miterlimit="10" stroke-linecap="round" stroke-linejoin="round"/>
<path d="M883.601 615.696H896.921V815.496H883.601V615.696Z" fill="#D6D9E2"/>
<path d="M883.601 615.696H896.921V815.496H883.601V615.696Z" stroke="#133B4F" stroke-width="5.328" stroke-miterlimit="10" stroke-linecap="round" stroke-linejoin="round"/>
<path d="M205.929 690.395C205.929 690.395 205.423 677.995 203.26 672.141C209.583 674.975 215.414 687.684 215.414 687.684L205.929 690.395Z" stroke="#133B4F" stroke-width="5.328" stroke-miterlimit="10"/>
<path d="M294.975 808.836H459.449V838.14H294.975V808.836Z" fill="#6F8699"/>
<path d="M294.975 808.836H459.449V838.14H294.975V808.836Z" stroke="#133B4F" stroke-width="5.328" stroke-miterlimit="10" stroke-linecap="round" stroke-linejoin="round"/>
<path d="M254.813 775.419L226.386 770.629V749.234H237.707C242.25 749.234 246.213 745.733 246.349 741.192C246.383 740.081 246.193 738.975 245.792 737.939C245.39 736.903 244.785 735.958 244.011 735.16C243.238 734.363 242.312 733.728 241.288 733.295C240.265 732.862 239.165 732.639 238.054 732.639H186.245C181.701 732.639 177.739 736.14 177.603 740.682C177.569 741.792 177.758 742.898 178.16 743.934C178.561 744.971 179.167 745.916 179.94 746.713C180.714 747.511 181.64 748.145 182.663 748.578C183.686 749.011 184.786 749.234 185.897 749.234H197.565V770.629L169.138 775.419C166.038 775.941 163.272 777.674 161.449 780.236C159.626 782.797 158.896 785.978 159.418 789.078L166.345 827.4C166.89 830.413 168.475 833.139 170.825 835.102C173.175 837.065 176.139 838.141 179.201 838.141H244.752C247.814 838.141 250.778 837.066 253.128 835.103C255.478 833.14 257.064 830.413 257.608 827.4L264.534 789.078C264.793 787.543 264.747 785.972 264.398 784.455C264.05 782.938 263.406 781.504 262.503 780.235C261.6 778.967 260.457 777.889 259.137 777.062C257.818 776.236 256.349 775.677 254.813 775.419Z" fill="white"/>
<path d="M254.813 775.419L226.386 770.629V749.234H237.707C242.25 749.234 246.213 745.733 246.349 741.192C246.383 740.081 246.193 738.975 245.792 737.939C245.39 736.903 244.785 735.958 244.011 735.16C243.238 734.363 242.312 733.728 241.288 733.295C240.265 732.862 239.165 732.639 238.054 732.639H186.245C181.701 732.639 177.739 736.14 177.603 740.682C177.569 741.792 177.758 742.898 178.16 743.934C178.561 744.971 179.167 745.916 179.94 746.713C180.714 747.511 181.64 748.145 182.663 748.578C183.686 749.011 184.786 749.234 185.897 749.234H197.565V770.629L169.138 775.419C166.038 775.941 163.272 777.674 161.449 780.236C159.626 782.797 158.896 785.978 159.418 789.078L166.345 827.4C166.89 830.413 168.475 833.139 170.825 835.102C173.175 837.065 176.139 838.141 179.201 838.141H244.752C247.814 838.141 250.778 837.066 253.128 835.103C255.478 833.14 257.064 830.413 257.608 827.4L264.534 789.078C264.793 787.543 264.747 785.972 264.398 784.455C264.05 782.938 263.406 781.504 262.503 780.235C261.6 778.967 260.457 777.889 259.137 777.062C257.818 776.236 256.349 775.677 254.813 775.419Z" stroke="#133B4F" stroke-width="5.328" stroke-miterlimit="10" stroke-linecap="round" stroke-linejoin="round"/>
<path d="M233.118 698.312C227.686 680.688 216.709 671.114 212.127 666.312C209.561 686.287 188.682 692.543 190.76 711.334C192.46 726.701 207.174 731.335 214.286 730.131C229.354 727.58 237.276 711.806 233.118 698.312Z" fill="#FF815F"/>
<path d="M233.118 698.312C227.686 680.688 216.709 671.114 212.127 666.312C209.561 686.287 188.682 692.543 190.76 711.334C192.46 726.701 207.174 731.335 214.286 730.131C229.354 727.58 237.276 711.806 233.118 698.312Z" stroke="#133B4F" stroke-width="5.328" stroke-miterlimit="10"/>
<path d="M220.905 711.807C218.79 702.365 214.297 697.537 211.892 695.017C210.546 705.497 199.593 708.779 200.682 718.638C201.573 726.701 209.294 729.132 213.025 728.5C220.931 727.162 222.147 717.35 220.905 711.807Z" fill="#FFBB22"/>
<path d="M222.181 710.435C220.072 701.57 214.297 697.537 211.892 695.017C210.546 705.497 199.593 708.779 200.682 718.638C201.573 726.701 209.294 729.132 213.025 728.5C220.931 727.162 223.495 715.962 222.181 710.435Z" stroke="#133B4F" stroke-width="5.328" stroke-miterlimit="10"/>
<path d="M174.197 795.96L178.732 821.049C178.923 822.107 179.48 823.064 180.305 823.753C181.129 824.442 182.17 824.82 183.245 824.82H240.705C241.78 824.82 242.82 824.442 243.645 823.753C244.47 823.064 245.027 822.107 245.218 821.049L249.752 795.96H174.197Z" fill="#67CF70"/>
<path d="M211.975 732.639V812.832M174.197 795.96L178.732 821.049C178.923 822.107 179.48 823.064 180.305 823.753C181.129 824.442 182.17 824.82 183.245 824.82H240.705C241.78 824.82 242.82 824.442 243.645 823.753C244.47 823.064 245.027 822.107 245.218 821.049L249.752 795.96H174.197Z" stroke="#133B4F" stroke-width="5.328" stroke-miterlimit="10" stroke-linecap="round" stroke-linejoin="round"/>
<path d="M234.619 431.973V354.673H189.331V431.977C189.333 434.026 188.689 436.023 187.491 437.686C186.293 439.348 184.602 440.59 182.658 441.236C144.721 453.791 117.576 490.036 118.772 532.454C120.163 581.731 160.412 621.797 209.696 622.971C262.233 624.225 305.215 582.011 305.215 529.758C305.215 488.537 278.46 453.574 241.371 441.261C237.354 439.928 234.619 436.205 234.619 431.973Z" fill="white"/>
<path d="M234.619 431.973V354.673H189.331V431.977C189.333 434.026 188.689 436.023 187.491 437.686C186.293 439.348 184.602 440.59 182.658 441.236C144.721 453.791 117.576 490.036 118.772 532.454C120.163 581.731 160.412 621.797 209.696 622.971C262.233 624.225 305.215 582.011 305.215 529.758C305.215 488.537 278.46 453.574 241.371 441.261C237.354 439.928 234.619 436.205 234.619 431.973Z" stroke="#133B4F" stroke-width="5.328" stroke-miterlimit="10" stroke-linecap="round" stroke-linejoin="round"/>
<path d="M288.638 507.138H288.61C286.8 499.077 279.611 493.048 271.004 493.048C266.989 493.047 263.09 494.39 259.928 496.864C257.759 495.274 255.14 494.417 252.45 494.417C249.868 494.415 247.347 495.203 245.226 496.675C245.252 496.338 245.278 496.001 245.278 495.658C245.278 492.284 243.938 489.049 241.552 486.664C239.167 484.278 235.932 482.938 232.558 482.938C230.639 482.94 228.745 483.378 227.02 484.221C222.584 477.716 215.117 473.441 206.65 473.441C193.041 473.441 182.008 484.474 182.008 498.083C182.008 501.284 183.747 507.138 183.747 507.138C183.775 506.77 183.775 507.145 183.775 506.77C183.775 498.679 175.448 491.376 167.356 491.376C159.264 491.376 152.704 497.937 152.704 506.028C152.704 506.403 152.732 506.77 152.76 507.138H135.272C132.918 515.235 131.845 523.649 132.09 532.077C132.665 552.482 141.041 571.743 155.674 586.311C170.306 600.878 189.605 609.168 210.016 609.654C210.67 609.67 211.325 609.678 211.976 609.678H211.979C233.326 609.678 253.395 601.365 268.489 586.272C283.583 571.177 291.896 551.107 291.896 529.758C291.896 522.101 290.799 514.484 288.638 507.138Z" fill="#F6164C"/>
<path d="M288.638 507.138H288.61C286.8 499.077 279.611 493.048 271.004 493.048C266.989 493.047 263.09 494.39 259.928 496.864C257.759 495.274 255.14 494.417 252.45 494.417C249.868 494.415 247.347 495.203 245.226 496.675C245.252 496.338 245.278 496.001 245.278 495.658C245.278 492.284 243.938 489.049 241.552 486.664C239.167 484.278 235.932 482.938 232.558 482.938C230.639 482.94 228.745 483.378 227.02 484.221C222.584 477.716 215.117 473.441 206.65 473.441C193.041 473.441 182.008 484.474 182.008 498.083C182.008 501.284 183.747 507.138 183.747 507.138C183.775 506.77 183.775 507.145 183.775 506.77C183.775 498.679 175.448 491.376 167.356 491.376C159.264 491.376 152.704 497.937 152.704 506.028C152.704 506.403 152.732 506.77 152.76 507.138H135.272C132.918 515.235 131.845 523.649 132.09 532.077C132.665 552.482 141.041 571.743 155.674 586.311C170.306 600.878 189.605 609.168 210.016 609.654C210.67 609.67 211.325 609.678 211.976 609.678H211.979C233.326 609.678 253.395 601.365 268.489 586.272C283.583 571.177 291.896 551.107 291.896 529.758C291.896 522.101 290.799 514.484 288.638 507.138Z" stroke="#133B4F" stroke-width="5.328" stroke-miterlimit="10" stroke-linecap="round" stroke-linejoin="round"/>
<path d="M155.228 514.256C153.577 511.83 152.696 508.962 152.701 506.027C152.701 497.935 159.261 491.375 167.353 491.375C175.445 491.375 183.75 495.315 183.75 506.027" stroke="#133B4F" stroke-width="5.328" stroke-miterlimit="10" stroke-linecap="round" stroke-linejoin="round"/>
<path d="M182.235 501.464C182.082 500.343 182.005 499.213 182.005 498.082C182.005 484.473 193.038 473.44 206.647 473.44C215.113 473.44 222.582 477.709 227.019 484.212" stroke="#133B4F" stroke-width="5.328" stroke-miterlimit="10" stroke-linecap="round" stroke-linejoin="round"/>
<path d="M220.576 491.374C221.702 488.236 224.012 485.664 227.011 484.208C228.95 483.268 231.096 482.837 233.248 482.954C235.399 483.071 237.486 483.733 239.312 484.878C241.137 486.022 242.642 487.612 243.685 489.497C244.729 491.383 245.275 493.503 245.275 495.657M247.153 495.571C248.815 494.81 250.621 494.416 252.449 494.419C255.248 494.419 257.836 495.323 259.936 496.855" stroke="#133B4F" stroke-width="5.328" stroke-miterlimit="10" stroke-linecap="round" stroke-linejoin="round"/>
<path d="M252.945 511.107C252.945 505.313 255.674 500.156 259.916 496.851C263.083 494.381 266.986 493.042 271.003 493.048C279.613 493.048 286.815 499.074 288.624 507.138" stroke="#133B4F" stroke-width="5.328" stroke-miterlimit="10" stroke-linecap="round" stroke-linejoin="round"/>
<path d="M199.502 318.66H224.448V365.946H199.502V318.66Z" fill="#CE7867"/>
<path d="M199.502 318.66H224.448V365.946H199.502V318.66Z" stroke="#133B4F" stroke-width="5.328" stroke-miterlimit="10" stroke-linecap="round" stroke-linejoin="round"/>
<path d="M239.947 354.672H184.003C181.177 354.672 178.466 353.549 176.468 351.551C174.47 349.552 173.347 346.842 173.347 344.016C173.347 341.19 174.47 338.479 176.468 336.481C178.466 334.483 181.177 333.36 184.003 333.36H239.947C242.773 333.36 245.484 334.483 247.482 336.481C249.48 338.479 250.603 341.19 250.603 344.016C250.603 346.842 249.48 349.552 247.482 351.551C245.484 353.549 242.773 354.672 239.947 354.672Z" fill="#D8D8D8"/>
<path d="M239.947 354.672H184.003C181.177 354.672 178.466 353.549 176.468 351.551C174.47 349.552 173.347 346.842 173.347 344.016C173.347 341.19 174.47 338.479 176.468 336.481C178.466 334.483 181.177 333.36 184.003 333.36H239.947C242.773 333.36 245.484 334.483 247.482 336.481C249.48 338.479 250.603 341.19 250.603 344.016C250.603 346.842 249.48 349.552 247.482 351.551C245.484 353.549 242.773 354.672 239.947 354.672Z" stroke="#133B4F" stroke-width="5.328" stroke-miterlimit="10" stroke-linecap="round" stroke-linejoin="round"/>
<path d="M211.975 449.608C217.492 449.608 221.964 445.135 221.964 439.619C221.964 434.102 217.492 429.63 211.975 429.63C206.458 429.63 201.986 434.102 201.986 439.619C201.986 445.135 206.458 449.608 211.975 449.608Z" fill="#F6164C"/>
<path d="M211.975 449.608C217.492 449.608 221.964 445.135 221.964 439.619C221.964 434.102 217.492 429.63 211.975 429.63C206.458 429.63 201.986 434.102 201.986 439.619C201.986 445.135 206.458 449.608 211.975 449.608Z" stroke="#133B4F" stroke-width="5.328" stroke-miterlimit="10"/>
<path d="M243.36 478.5C246.302 478.5 248.688 476.115 248.688 473.172C248.688 470.229 246.302 467.844 243.36 467.844C240.417 467.844 238.032 470.229 238.032 473.172C238.032 476.115 240.417 478.5 243.36 478.5Z" fill="#F6164C"/>
<path d="M243.36 478.5C246.302 478.5 248.688 476.115 248.688 473.172C248.688 470.229 246.302 467.844 243.36 467.844C240.417 467.844 238.032 470.229 238.032 473.172C238.032 476.115 240.417 478.5 243.36 478.5Z" stroke="#133B4F" stroke-width="5.328" stroke-miterlimit="10" stroke-linecap="round" stroke-linejoin="round"/>
<path d="M189.32 464.236C190.598 464.236 191.634 463.2 191.634 461.922C191.634 460.644 190.598 459.608 189.32 459.608C188.043 459.608 187.007 460.644 187.007 461.922C187.007 463.2 188.043 464.236 189.32 464.236Z" stroke="#133B4F" stroke-width="5.328" stroke-miterlimit="10" stroke-linecap="round" stroke-linejoin="round"/>
<path d="M189.023 550.818C191.936 550.818 194.298 548.457 194.298 545.544C194.298 542.63 191.936 540.269 189.023 540.269C186.11 540.269 183.749 542.63 183.749 545.544C183.749 548.457 186.11 550.818 189.023 550.818Z" fill="#133B4F"/>
<path d="M217.187 581.009C221.877 581.009 225.679 577.208 225.679 572.518C225.679 567.828 221.877 564.026 217.187 564.026C212.497 564.026 208.696 567.828 208.696 572.518C208.696 577.208 212.497 581.009 217.187 581.009Z" fill="#133B4F"/>
<path d="M247.153 551.851C248.859 551.851 250.242 550.468 250.242 548.762C250.242 547.056 248.859 545.673 247.153 545.673C245.447 545.673 244.064 547.056 244.064 548.762C244.064 550.468 245.447 551.851 247.153 551.851Z" fill="#133B4F"/>
<path d="M220.576 526.926C221.787 526.926 222.769 525.944 222.769 524.732C222.769 523.521 221.787 522.539 220.576 522.539C219.364 522.539 218.382 523.521 218.382 524.732C218.382 525.944 219.364 526.926 220.576 526.926Z" fill="#133B4F"/>
<path d="M370.427 376.699H415.715V421.987H370.427V376.699Z" fill="#6F8699"/>
<path d="M370.427 376.699H415.715V421.987H370.427V376.699Z" stroke="#133B4F" stroke-width="5.328" stroke-miterlimit="10" stroke-linecap="round" stroke-linejoin="round"/>
<path d="M611.214 683.628C609.801 683.628 608.446 683.067 607.447 682.067C606.447 681.068 605.886 679.713 605.886 678.3V505.557C605.886 476.683 629.377 453.192 658.251 453.192C687.126 453.192 710.616 476.683 710.616 505.557V625.686C710.616 627.099 710.054 628.454 709.055 629.453C708.056 630.453 706.701 631.014 705.288 631.014C703.875 631.014 702.52 630.453 701.52 629.453C700.521 628.454 699.96 627.099 699.96 625.686V505.556C699.96 482.557 681.249 463.847 658.251 463.847C635.253 463.847 616.542 482.557 616.542 505.556V678.3C616.542 679.713 615.981 681.068 614.981 682.067C613.982 683.067 612.627 683.628 611.214 683.628Z" fill="white"/>
<path d="M611.214 683.628C609.801 683.628 608.446 683.067 607.447 682.067C606.447 681.068 605.886 679.713 605.886 678.3V505.557C605.886 476.683 629.377 453.192 658.251 453.192C687.126 453.192 710.616 476.683 710.616 505.557V625.686C710.616 627.099 710.054 628.454 709.055 629.453C708.056 630.453 706.701 631.014 705.288 631.014C703.875 631.014 702.52 630.453 701.52 629.453C700.521 628.454 699.96 627.099 699.96 625.686V505.556C699.96 482.557 681.249 463.847 658.251 463.847C635.253 463.847 616.542 482.557 616.542 505.556V678.3C616.542 679.713 615.981 681.068 614.981 682.067C613.982 683.067 612.627 683.628 611.214 683.628Z" stroke="#133B4F" stroke-width="5.328" stroke-miterlimit="10" stroke-linecap="round" stroke-linejoin="round"/>
<path d="M705.288 794.184C691.311 794.184 679.98 782.853 679.98 768.876V570.408H730.596V768.876C730.596 782.853 719.264 794.184 705.288 794.184Z" fill="white"/>
<path d="M705.288 794.184C691.311 794.184 679.98 782.853 679.98 768.876V570.408H730.596V768.876C730.596 782.853 719.264 794.184 705.288 794.184Z" stroke="#133B4F" stroke-width="5.328" stroke-miterlimit="10" stroke-linecap="round" stroke-linejoin="round"/>
<path d="M684.309 522.9H726.267V570.408H684.309V522.9Z" fill="#CE7867"/>
<path d="M684.309 522.9H726.267V570.408H684.309V522.9Z" stroke="#133B4F" stroke-width="5.328" stroke-miterlimit="10" stroke-linecap="round" stroke-linejoin="round"/>
<path d="M734.592 549.096H675.984C673.158 549.096 670.447 550.219 668.449 552.217C666.45 554.215 665.328 556.926 665.328 559.752C665.328 562.578 666.45 565.289 668.449 567.287C670.447 569.285 673.158 570.408 675.984 570.408H734.592C737.418 570.408 740.128 569.285 742.127 567.287C744.125 565.289 745.248 562.578 745.248 559.752C745.248 556.926 744.125 554.215 742.127 552.217C740.128 550.219 737.418 549.096 734.592 549.096Z" fill="#D8D8D8"/>
<path d="M734.592 549.096H675.984C673.158 549.096 670.447 550.219 668.449 552.217C666.45 554.215 665.328 556.926 665.328 559.752C665.328 562.578 666.45 565.289 668.449 567.287C670.447 569.285 673.158 570.408 675.984 570.408H734.592C737.418 570.408 740.128 569.285 742.127 567.287C744.125 565.289 745.248 562.578 745.248 559.752C745.248 556.926 744.125 554.215 742.127 552.217C740.128 550.219 737.418 549.096 734.592 549.096Z" stroke="#133B4F" stroke-width="5.328" stroke-miterlimit="10" stroke-linecap="round" stroke-linejoin="round"/>
<path d="M691.968 727.791V768.876C691.968 776.221 697.943 782.196 705.288 782.196C712.632 782.196 718.608 776.221 718.608 768.876V727.791H691.968Z" fill="#984DB2"/>
<path d="M691.968 727.791V768.876C691.968 776.221 697.943 782.196 705.288 782.196C712.632 782.196 718.608 776.221 718.608 768.876V727.791H691.968Z" stroke="#133B4F" stroke-width="5.328" stroke-miterlimit="10" stroke-linecap="round" stroke-linejoin="round"/>
<path d="M700.791 696.948C702.998 696.948 704.787 695.159 704.787 692.952C704.787 690.745 702.998 688.956 700.791 688.956C698.584 688.956 696.795 690.745 696.795 692.952C696.795 695.159 698.584 696.948 700.791 696.948Z" fill="#984DB2"/>
<path d="M700.791 696.948C702.998 696.948 704.787 695.159 704.787 692.952C704.787 690.745 702.998 688.956 700.791 688.956C698.584 688.956 696.795 690.745 696.795 692.952C696.795 695.159 698.584 696.948 700.791 696.948Z" stroke="#133B4F" stroke-width="5.328" stroke-miterlimit="10" stroke-linecap="round" stroke-linejoin="round"/>
<path d="M707.451 659.319C711.129 659.319 714.111 656.337 714.111 652.659C714.111 648.981 711.129 645.999 707.451 645.999C703.773 645.999 700.791 648.981 700.791 652.659C700.791 656.337 703.773 659.319 707.451 659.319Z" fill="#984DB2"/>
<path d="M707.451 659.319C711.129 659.319 714.111 656.337 714.111 652.659C714.111 648.981 711.129 645.999 707.451 645.999C703.773 645.999 700.791 648.981 700.791 652.659C700.791 656.337 703.773 659.319 707.451 659.319Z" stroke="#133B4F" stroke-width="5.328" stroke-miterlimit="10" stroke-linecap="round" stroke-linejoin="round"/>
<path d="M708.339 715.596C709.811 715.596 711.003 714.403 711.003 712.932C711.003 711.461 709.811 710.268 708.339 710.268C706.868 710.268 705.675 711.461 705.675 712.932C705.675 714.403 706.868 715.596 708.339 715.596Z" fill="#984DB2"/>
<path d="M708.339 715.596C709.811 715.596 711.003 714.403 711.003 712.932C711.003 711.461 709.811 710.268 708.339 710.268C706.868 710.268 705.675 711.461 705.675 712.932C705.675 714.403 706.868 715.596 708.339 715.596Z" stroke="#133B4F" stroke-width="5.328" stroke-miterlimit="10" stroke-linecap="round" stroke-linejoin="round"/>
<path d="M703.182 759.774C704.502 759.774 705.573 758.704 705.573 757.384C705.573 756.063 704.502 754.993 703.182 754.993C701.861 754.993 700.791 756.063 700.791 757.384C700.791 758.704 701.861 759.774 703.182 759.774Z" fill="#133B4F"/>
<path d="M704.514 747.667C706.627 747.667 708.339 745.954 708.339 743.841C708.339 741.728 706.627 740.016 704.514 740.016C702.401 740.016 700.688 741.728 700.688 743.841C700.688 745.954 702.401 747.667 704.514 747.667Z" fill="#133B4F"/>
<path d="M579.419 522.9H621.377V570.408H579.419V522.9Z" fill="#CE7867"/>
<path d="M579.419 522.9H621.377V570.408H579.419V522.9Z" stroke="#133B4F" stroke-width="5.328" stroke-miterlimit="10" stroke-linecap="round" stroke-linejoin="round"/>
<path d="M629.702 549.096H571.094C568.268 549.096 565.558 550.219 563.559 552.217C561.561 554.215 560.438 556.926 560.438 559.752C560.438 562.578 561.561 565.289 563.559 567.287C565.558 569.285 568.268 570.408 571.094 570.408H629.702C632.528 570.408 635.239 569.285 637.237 567.287C639.235 565.289 640.358 562.578 640.358 559.752C640.358 556.926 639.235 554.215 637.237 552.217C635.239 550.219 632.528 549.096 629.702 549.096Z" fill="#D8D8D8"/>
<path d="M629.702 549.096H571.094C568.268 549.096 565.558 550.219 563.559 552.217C561.561 554.215 560.438 556.926 560.438 559.752C560.438 562.578 561.561 565.289 563.559 567.287C565.558 569.285 568.268 570.408 571.094 570.408H629.702C632.528 570.408 635.239 569.285 637.237 567.287C639.235 565.289 640.358 562.578 640.358 559.752C640.358 556.926 639.235 554.215 637.237 552.217C635.239 550.219 632.528 549.096 629.702 549.096Z" stroke="#133B4F" stroke-width="5.328" stroke-miterlimit="10" stroke-linecap="round" stroke-linejoin="round"/>
<path d="M600.398 794.184C586.422 794.184 575.09 782.853 575.09 768.876V570.408H625.706V768.876C625.706 782.853 614.375 794.184 600.398 794.184Z" fill="white"/>
<path d="M600.398 794.184C586.422 794.184 575.09 782.853 575.09 768.876V570.408H625.706V768.876C625.706 782.853 614.375 794.184 600.398 794.184Z" stroke="#133B4F" stroke-width="5.328" stroke-miterlimit="10" stroke-linecap="round" stroke-linejoin="round"/>
<path d="M587.078 662.76V768.876C587.078 776.221 593.054 782.196 600.398 782.196C607.743 782.196 613.718 776.221 613.718 768.876V662.76H587.078Z" fill="#F3C50D"/>
<path d="M587.078 662.76V768.876C587.078 776.221 593.054 782.196 600.398 782.196C607.743 782.196 613.718 776.221 613.718 768.876V662.76H587.078Z" stroke="#133B4F" stroke-width="5.328" stroke-miterlimit="10" stroke-linecap="round" stroke-linejoin="round"/>
<path d="M596.573 714.094C598.685 714.094 600.398 712.381 600.398 710.268C600.398 708.155 598.685 706.443 596.573 706.443C594.46 706.443 592.747 708.155 592.747 710.268C592.747 712.381 594.46 714.094 596.573 714.094Z" fill="#133B4F"/>
<path d="M595.07 644.024C596.493 644.024 597.646 642.87 597.646 641.448C597.646 640.025 596.493 638.871 595.07 638.871C593.647 638.871 592.494 640.025 592.494 641.448C592.494 642.87 593.647 644.024 595.07 644.024Z" fill="#133B4F"/>
<path d="M604.224 680.133C605.142 680.133 605.886 679.389 605.886 678.47C605.886 677.552 605.142 676.808 604.224 676.808C603.306 676.808 602.561 677.552 602.561 678.47C602.561 679.389 603.306 680.133 604.224 680.133Z" fill="#133B4F"/>
<path d="M604.224 737.795C605.11 737.795 605.829 737.076 605.829 736.19C605.829 735.304 605.11 734.585 604.224 734.585C603.337 734.585 602.619 735.304 602.619 736.19C602.619 737.076 603.337 737.795 604.224 737.795Z" fill="#133B4F"/>
<path d="M492.168 605.04H918.408V615.696H492.168V605.04Z" fill="#DABC95"/>
<path d="M492.168 605.04H918.408V615.696H492.168V605.04Z" stroke="#133B4F" stroke-width="5.328" stroke-miterlimit="10" stroke-linecap="round" stroke-linejoin="round"/>
<path d="M320.283 295.156H343.149V412.635H320.283V295.156Z" fill="#CE7867"/>
<path d="M320.283 295.156H343.149V412.635H320.283V295.156Z" stroke="#133B4F" stroke-width="5.328" stroke-miterlimit="10" stroke-linecap="round" stroke-linejoin="round"/>
<path d="M259.566 392.683H370.427V406.003H259.566V392.683Z" fill="#6F8699"/>
<path d="M259.566 392.683H370.427V406.003H259.566V392.683Z" stroke="#133B4F" stroke-width="5.328" stroke-miterlimit="10" stroke-linecap="round" stroke-linejoin="round"/>
<path d="M172.015 416.659H251.935C261.499 416.659 269.251 408.907 269.251 399.343C269.251 389.779 261.499 382.027 251.935 382.027H172.015C162.451 382.027 154.699 389.779 154.699 399.343C154.699 408.907 162.451 416.659 172.015 416.659Z" fill="#6F8699"/>
<path d="M172.015 416.659H251.935C261.499 416.659 269.251 408.907 269.251 399.343C269.251 389.779 261.499 382.027 251.935 382.027H172.015C162.451 382.027 154.699 389.779 154.699 399.343C154.699 408.907 162.451 416.659 172.015 416.659Z" stroke="#133B4F" stroke-width="5.328" stroke-miterlimit="10" stroke-linecap="round" stroke-linejoin="round"/>
<path d="M4.26556 838.14H1003.27" stroke="#133B4F" stroke-width="7.992" stroke-miterlimit="10" stroke-linecap="round" stroke-linejoin="round"/>
</g>
<defs>
<clipPath id="clip0_803_456">
<rect width="1008" height="842" fill="white" transform="translate(0 0.5)"/>
</clipPath>
</defs>
</svg>
