<svg width="1488" height="608" viewBox="0 0 1488 608" fill="none" xmlns="http://www.w3.org/2000/svg">
<g opacity="0.6">
<path d="M1271.56 599.579L1202.75 491.286L1271.56 382.995H1409.19L1478 491.286L1409.19 599.579H1271.56Z" fill="#091F48" stroke="#091F48" stroke-width="15.3694" stroke-miterlimit="10"/>
<path d="M1033.01 474.627L964.199 366.334L1033.01 258.044H1170.64L1239.45 366.334L1170.64 474.627H1033.01Z" fill="#091F48" stroke="#091F48" stroke-width="15.3694" stroke-miterlimit="10"/>
<path d="M1033.01 224.724L964.199 116.433L1033.01 8.14062H1170.64L1239.45 116.433L1170.64 224.724H1033.01Z" fill="#091F48" stroke="#091F48" stroke-width="15.3694" stroke-miterlimit="10"/>
<path d="M794.462 349.675L725.65 241.385L794.462 133.092H932.087L1000.9 241.385L932.087 349.675H794.462Z" fill="#091F48" stroke="#091F48" stroke-width="15.3694" stroke-miterlimit="10"/>
<path d="M555.913 474.627L487.099 366.334L555.913 258.044H693.536L762.35 366.334L693.536 474.627H555.913Z" fill="#091F48" stroke="#091F48" stroke-width="15.3694" stroke-miterlimit="10"/>
<path d="M78.8114 474.627L10 366.334L78.8114 258.044H216.437L285.25 366.334L216.437 474.627H78.8114Z" fill="#091F48" stroke="#091F48" stroke-width="15.3694" stroke-miterlimit="10"/>
</g>
</svg>
