<svg width="1419" height="580" viewBox="0 0 1419 580" fill="none" xmlns="http://www.w3.org/2000/svg">
<g opacity="0.6">
<path d="M1212.71 572.318L1147.06 468.991L1212.71 365.666H1344.03L1409.69 468.991L1344.03 572.318H1212.71Z" fill="#FF5800" stroke="#091F48" stroke-width="14.6646" stroke-miterlimit="10"/>
<path d="M985.103 453.096L919.444 349.769L985.103 246.444H1116.42L1182.07 349.769L1116.42 453.096H985.103Z" fill="#FF5800" stroke="#091F48" stroke-width="14.6646" stroke-miterlimit="10"/>
<path d="M985.103 214.652L919.444 111.327L985.103 8H1116.42L1182.07 111.327L1116.42 214.652H985.103Z" fill="#FF5800" stroke="#091F48" stroke-width="14.6646" stroke-miterlimit="10"/>
<path d="M757.49 333.874L691.834 230.549L757.49 127.222H888.805L954.461 230.549L888.805 333.874H757.49Z" fill="#FF5800" stroke="#091F48" stroke-width="14.6646" stroke-miterlimit="10"/>
<path d="M529.881 453.096L464.222 349.769L529.881 246.444H661.193L726.851 349.769L661.193 453.096H529.881Z" fill="#FF5800" stroke="#091F48" stroke-width="14.6646" stroke-miterlimit="10"/>
<path d="M74.656 453.096L9 349.769L74.656 246.444H205.971L271.629 349.769L205.971 453.096H74.656Z" fill="#FF5800" stroke="#091F48" stroke-width="14.6646" stroke-miterlimit="10"/>
</g>
</svg>
