<svg width="2832" height="2318" viewBox="0 0 2832 2318" fill="none" xmlns="http://www.w3.org/2000/svg">
<g opacity="0.6">
<path d="M2508.72 1183.78L2300.71 1063.52L2300.58 815.522L2508.45 687.777L2716.45 808.03L2716.58 1056.03L2508.72 1183.78Z" fill="#091F48" stroke="#021126" stroke-width="27.1466" stroke-miterlimit="10"/>
<path d="M2028.34 1192.75L1820.33 1072.49L1820.2 824.488L2028.07 696.744L2236.07 816.999L2236.2 1065L2028.34 1192.75Z" fill="#091F48" stroke="#021126" stroke-width="27.1466" stroke-miterlimit="10"/>
<path d="M1788.18 767.834L1580.18 647.581L1580.04 399.577L1787.91 271.832L1995.91 392.092L1996.05 640.089L1788.18 767.834Z" fill="#091F48" stroke="#021126" stroke-width="27.1466" stroke-miterlimit="10"/>
<path d="M1547.95 1201.71L1339.95 1081.46L1339.82 833.457L1547.68 705.713L1755.68 825.972L1755.82 1073.97L1547.95 1201.71Z" fill="#091F48" stroke="#021126" stroke-width="27.1466" stroke-miterlimit="10"/>
<path d="M1307.73 1635.59L1099.72 1515.33L1099.59 1267.33L1307.46 1139.59L1515.46 1259.85L1515.59 1507.85L1307.73 1635.59Z" fill="#091F48" stroke="#021126" stroke-width="27.1466" stroke-miterlimit="10"/>
<path d="M587.117 2078.44L379.116 1958.18L378.981 1710.18L586.849 1582.44L794.852 1702.69L794.985 1950.7L587.117 2078.44Z" fill="#091F48" stroke="#021126" stroke-width="27.1466" stroke-miterlimit="10"/>
</g>
</svg>
